  0
SECTION
  2
BLOCKS
  0
ENDSEC
  0
SECTION
  2
ENTITIES
  0
LINE
  8
0
 10
38.2302
 20
-21
 11
40.1465
 21
-22.9162
  0
LINE
  8
0
 10
40.1465
 20
-22.9162
 11
40.2278
 21
-22.9821
  0
LINE
  8
0
 10
40.2278
 20
-22.9821
 11
40.3156
 21
-23.0391
  0
LINE
  8
0
 10
40.3156
 20
-23.0391
 11
40.4089
 21
-23.0866
  0
LINE
  8
0
 10
40.4089
 20
-23.0866
 11
40.5066
 21
-23.1241
  0
LINE
  8
0
 10
40.5066
 20
-23.1241
 11
40.6077
 21
-23.1512
  0
LINE
  8
0
 10
40.6077
 20
-23.1512
 11
40.7111
 21
-23.1676
  0
LINE
  8
0
 10
40.7111
 20
-23.1676
 11
40.8156
 21
-23.1731
  0
LINE
  8
0
 10
40.8156
 20
-23.1731
 11
59.1844
 21
-23.1731
  0
LINE
  8
0
 10
59.1844
 20
-23.1731
 11
59.2889
 21
-23.1676
  0
LINE
  8
0
 10
59.2889
 20
-23.1676
 11
59.3923
 21
-23.1512
  0
LINE
  8
0
 10
59.3923
 20
-23.1512
 11
59.4934
 21
-23.1241
  0
LINE
  8
0
 10
59.4934
 20
-23.1241
 11
59.5911
 21
-23.0866
  0
LINE
  8
0
 10
59.5911
 20
-23.0866
 11
59.6844
 21
-23.0391
  0
LINE
  8
0
 10
59.6844
 20
-23.0391
 11
59.7722
 21
-22.9821
  0
LINE
  8
0
 10
59.7722
 20
-22.9821
 11
59.8535
 21
-22.9162
  0
LINE
  8
0
 10
59.8535
 20
-22.9162
 11
72.9162
 21
-9.85352
  0
LINE
  8
0
 10
72.9162
 20
-9.85352
 11
72.9821
 21
-9.77217
  0
LINE
  8
0
 10
72.9821
 20
-9.77217
 11
73.0391
 21
-9.68437
  0
LINE
  8
0
 10
73.0391
 20
-9.68437
 11
73.0866
 21
-9.59111
  0
LINE
  8
0
 10
73.0866
 20
-9.59111
 11
73.1241
 21
-9.49339
  0
LINE
  8
0
 10
73.1241
 20
-9.49339
 11
73.1512
 21
-9.39229
  0
LINE
  8
0
 10
73.1512
 20
-9.39229
 11
73.1676
 21
-9.28891
  0
LINE
  8
0
 10
73.1676
 20
-9.28891
 11
73.1731
 21
-9.18439
  0
LINE
  8
0
 10
73.1731
 20
-9.18439
 11
73.1731
 21
9.18439
  0
LINE
  8
0
 10
73.1731
 20
9.18439
 11
73.1676
 21
9.28891
  0
LINE
  8
0
 10
73.1676
 20
9.28891
 11
73.1512
 21
9.39229
  0
LINE
  8
0
 10
73.1512
 20
9.39229
 11
73.1241
 21
9.49339
  0
LINE
  8
0
 10
73.1241
 20
9.49339
 11
73.0866
 21
9.59111
  0
LINE
  8
0
 10
73.0866
 20
9.59111
 11
73.0391
 21
9.68437
  0
LINE
  8
0
 10
73.0391
 20
9.68437
 11
72.9821
 21
9.77217
  0
LINE
  8
0
 10
72.9821
 20
9.77217
 11
72.9162
 21
9.85352
  0
LINE
  8
0
 10
72.9162
 20
9.85352
 11
59.8535
 21
22.9162
  0
LINE
  8
0
 10
59.8535
 20
22.9162
 11
59.7722
 21
22.9821
  0
LINE
  8
0
 10
59.7722
 20
22.9821
 11
59.6844
 21
23.0391
  0
LINE
  8
0
 10
59.6844
 20
23.0391
 11
59.5911
 21
23.0866
  0
LINE
  8
0
 10
59.5911
 20
23.0866
 11
59.4934
 21
23.1241
  0
LINE
  8
0
 10
59.4934
 20
23.1241
 11
59.3923
 21
23.1512
  0
LINE
  8
0
 10
59.3923
 20
23.1512
 11
59.2889
 21
23.1676
  0
LINE
  8
0
 10
59.2889
 20
23.1676
 11
59.1844
 21
23.1731
  0
LINE
  8
0
 10
59.1844
 20
23.1731
 11
40.8156
 21
23.1731
  0
LINE
  8
0
 10
40.8156
 20
23.1731
 11
40.7111
 21
23.1676
  0
LINE
  8
0
 10
40.7111
 20
23.1676
 11
40.6077
 21
23.1512
  0
LINE
  8
0
 10
40.6077
 20
23.1512
 11
40.5066
 21
23.1241
  0
LINE
  8
0
 10
40.5066
 20
23.1241
 11
40.4089
 21
23.0866
  0
LINE
  8
0
 10
40.4089
 20
23.0866
 11
40.3156
 21
23.0391
  0
LINE
  8
0
 10
40.3156
 20
23.0391
 11
40.2278
 21
22.9821
  0
LINE
  8
0
 10
40.2278
 20
22.9821
 11
40.1465
 21
22.9162
  0
LINE
  8
0
 10
40.1465
 20
22.9162
 11
38.2302
 21
21
  0
LINE
  8
0
 10
38.2302
 20
21
 11
11.7697
 21
21
  0
LINE
  8
0
 10
11.7697
 20
21
 11
9.85352
 21
22.9162
  0
LINE
  8
0
 10
9.85352
 20
22.9162
 11
9.77217
 21
22.9821
  0
LINE
  8
0
 10
9.77217
 20
22.9821
 11
9.68439
 21
23.0391
  0
LINE
  8
0
 10
9.68439
 20
23.0391
 11
9.59111
 21
23.0866
  0
LINE
  8
0
 10
9.59111
 20
23.0866
 11
9.49339
 21
23.1241
  0
LINE
  8
0
 10
9.49339
 20
23.1241
 11
9.39229
 21
23.1512
  0
LINE
  8
0
 10
9.39229
 20
23.1512
 11
9.28891
 21
23.1676
  0
LINE
  8
0
 10
9.28891
 20
23.1676
 11
9.18439
 21
23.1731
  0
LINE
  8
0
 10
9.18439
 20
23.1731
 11
-9.18439
 21
23.1731
  0
LINE
  8
0
 10
-9.18439
 20
23.1731
 11
-9.28891
 21
23.1676
  0
LINE
  8
0
 10
-9.28891
 20
23.1676
 11
-9.39229
 21
23.1512
  0
LINE
  8
0
 10
-9.39229
 20
23.1512
 11
-9.49339
 21
23.1241
  0
LINE
  8
0
 10
-9.49339
 20
23.1241
 11
-9.59111
 21
23.0866
  0
LINE
  8
0
 10
-9.59111
 20
23.0866
 11
-9.68437
 21
23.0391
  0
LINE
  8
0
 10
-9.68437
 20
23.0391
 11
-9.77217
 21
22.9821
  0
LINE
  8
0
 10
-9.77217
 20
22.9821
 11
-9.85352
 21
22.9162
  0
LINE
  8
0
 10
-9.85352
 20
22.9162
 11
-22.9162
 21
9.85352
  0
LINE
  8
0
 10
-22.9162
 20
9.85352
 11
-22.9821
 21
9.77217
  0
LINE
  8
0
 10
-22.9821
 20
9.77217
 11
-23.0391
 21
9.68437
  0
LINE
  8
0
 10
-23.0391
 20
9.68437
 11
-23.0866
 21
9.59111
  0
LINE
  8
0
 10
-23.0866
 20
9.59111
 11
-23.1241
 21
9.49339
  0
LINE
  8
0
 10
-23.1241
 20
9.49339
 11
-23.1512
 21
9.39229
  0
LINE
  8
0
 10
-23.1512
 20
9.39229
 11
-23.1676
 21
9.28891
  0
LINE
  8
0
 10
-23.1676
 20
9.28891
 11
-23.1731
 21
9.18439
  0
LINE
  8
0
 10
-23.1731
 20
9.18439
 11
-23.1731
 21
-9.18439
  0
LINE
  8
0
 10
-23.1731
 20
-9.18439
 11
-23.1676
 21
-9.28891
  0
LINE
  8
0
 10
-23.1676
 20
-9.28891
 11
-23.1512
 21
-9.39229
  0
LINE
  8
0
 10
-23.1512
 20
-9.39229
 11
-23.1241
 21
-9.49339
  0
LINE
  8
0
 10
-23.1241
 20
-9.49339
 11
-23.0866
 21
-9.59111
  0
LINE
  8
0
 10
-23.0866
 20
-9.59111
 11
-23.0391
 21
-9.68437
  0
LINE
  8
0
 10
-23.0391
 20
-9.68437
 11
-22.9821
 21
-9.77217
  0
LINE
  8
0
 10
-22.9821
 20
-9.77217
 11
-22.9162
 21
-9.85352
  0
LINE
  8
0
 10
-22.9162
 20
-9.85352
 11
-9.85352
 21
-22.9162
  0
LINE
  8
0
 10
-9.85352
 20
-22.9162
 11
-9.77217
 21
-22.9821
  0
LINE
  8
0
 10
-9.77217
 20
-22.9821
 11
-9.68439
 21
-23.0391
  0
LINE
  8
0
 10
-9.68439
 20
-23.0391
 11
-9.59111
 21
-23.0866
  0
LINE
  8
0
 10
-9.59111
 20
-23.0866
 11
-9.49339
 21
-23.1241
  0
LINE
  8
0
 10
-9.49339
 20
-23.1241
 11
-9.39229
 21
-23.1512
  0
LINE
  8
0
 10
-9.39229
 20
-23.1512
 11
-9.28891
 21
-23.1676
  0
LINE
  8
0
 10
-9.28891
 20
-23.1676
 11
-9.18439
 21
-23.1731
  0
LINE
  8
0
 10
-9.18439
 20
-23.1731
 11
9.18439
 21
-23.1731
  0
LINE
  8
0
 10
9.18439
 20
-23.1731
 11
9.28891
 21
-23.1676
  0
LINE
  8
0
 10
9.28891
 20
-23.1676
 11
9.39229
 21
-23.1512
  0
LINE
  8
0
 10
9.39229
 20
-23.1512
 11
9.49339
 21
-23.1241
  0
LINE
  8
0
 10
9.49339
 20
-23.1241
 11
9.59111
 21
-23.0866
  0
LINE
  8
0
 10
9.59111
 20
-23.0866
 11
9.68439
 21
-23.0391
  0
LINE
  8
0
 10
9.68439
 20
-23.0391
 11
9.77217
 21
-22.9821
  0
LINE
  8
0
 10
9.77217
 20
-22.9821
 11
9.85352
 21
-22.9162
  0
LINE
  8
0
 10
9.85352
 20
-22.9162
 11
11.7697
 21
-21
  0
LINE
  8
0
 10
11.7697
 20
-21
 11
38.2302
 21
-21
  0
ENDSEC
  0
SECTION
  2
OBJECTS
  0
DICTIONARY
  0
ENDSEC
  0
EOF
