  0
SECTION
  2
BLOCKS
  0
ENDSEC
  0
SECTION
  2
ENTITIES
  0
LINE
  8
0
 10
9
 20
-16
 11
41
 21
-16
  0
LINE
  8
0
 10
41
 20
-16
 11
41.0661
 21
-15.9965
  0
LINE
  8
0
 10
41.0661
 20
-15.9965
 11
42.4426
 21
-17.373
  0
LINE
  8
0
 10
42.4426
 20
-17.373
 11
42.5239
 21
-17.4388
  0
LINE
  8
0
 10
42.5239
 20
-17.4388
 11
42.6117
 21
-17.4958
  0
LINE
  8
0
 10
42.6117
 20
-17.4958
 11
42.705
 21
-17.5434
  0
LINE
  8
0
 10
42.705
 20
-17.5434
 11
42.8027
 21
-17.5809
  0
LINE
  8
0
 10
42.8027
 20
-17.5809
 11
42.9038
 21
-17.608
  0
LINE
  8
0
 10
42.9038
 20
-17.608
 11
43.0072
 21
-17.6243
  0
LINE
  8
0
 10
43.0072
 20
-17.6243
 11
43.1117
 21
-17.6298
  0
LINE
  8
0
 10
43.1117
 20
-17.6298
 11
56.8883
 21
-17.6298
  0
LINE
  8
0
 10
56.8883
 20
-17.6298
 11
56.9928
 21
-17.6243
  0
LINE
  8
0
 10
56.9928
 20
-17.6243
 11
57.0962
 21
-17.608
  0
LINE
  8
0
 10
57.0962
 20
-17.608
 11
57.1973
 21
-17.5809
  0
LINE
  8
0
 10
57.1973
 20
-17.5809
 11
57.295
 21
-17.5434
  0
LINE
  8
0
 10
57.295
 20
-17.5434
 11
57.3883
 21
-17.4958
  0
LINE
  8
0
 10
57.3883
 20
-17.4958
 11
57.4761
 21
-17.4388
  0
LINE
  8
0
 10
57.4761
 20
-17.4388
 11
57.5574
 21
-17.373
  0
LINE
  8
0
 10
57.5574
 20
-17.373
 11
67.373
 21
-7.55742
  0
LINE
  8
0
 10
67.373
 20
-7.55742
 11
67.4388
 21
-7.47607
  0
LINE
  8
0
 10
67.4388
 20
-7.47607
 11
67.4958
 21
-7.38828
  0
LINE
  8
0
 10
67.4958
 20
-7.38828
 11
67.5434
 21
-7.29501
  0
LINE
  8
0
 10
67.5434
 20
-7.29501
 11
67.5809
 21
-7.1973
  0
LINE
  8
0
 10
67.5809
 20
-7.1973
 11
67.608
 21
-7.09619
  0
LINE
  8
0
 10
67.608
 20
-7.09619
 11
67.6243
 21
-6.99281
  0
LINE
  8
0
 10
67.6243
 20
-6.99281
 11
67.6298
 21
-6.88829
  0
LINE
  8
0
 10
67.6298
 20
-6.88829
 11
67.6298
 21
6.88829
  0
LINE
  8
0
 10
67.6298
 20
6.88829
 11
67.6243
 21
6.99281
  0
LINE
  8
0
 10
67.6243
 20
6.99281
 11
67.608
 21
7.09619
  0
LINE
  8
0
 10
67.608
 20
7.09619
 11
67.5809
 21
7.1973
  0
LINE
  8
0
 10
67.5809
 20
7.1973
 11
67.5434
 21
7.29501
  0
LINE
  8
0
 10
67.5434
 20
7.29501
 11
67.4958
 21
7.38828
  0
LINE
  8
0
 10
67.4958
 20
7.38828
 11
67.4388
 21
7.47607
  0
LINE
  8
0
 10
67.4388
 20
7.47607
 11
67.373
 21
7.55742
  0
LINE
  8
0
 10
67.373
 20
7.55742
 11
57.5574
 21
17.373
  0
LINE
  8
0
 10
57.5574
 20
17.373
 11
57.4761
 21
17.4388
  0
LINE
  8
0
 10
57.4761
 20
17.4388
 11
57.3883
 21
17.4958
  0
LINE
  8
0
 10
57.3883
 20
17.4958
 11
57.295
 21
17.5434
  0
LINE
  8
0
 10
57.295
 20
17.5434
 11
57.1973
 21
17.5809
  0
LINE
  8
0
 10
57.1973
 20
17.5809
 11
57.0962
 21
17.608
  0
LINE
  8
0
 10
57.0962
 20
17.608
 11
56.9928
 21
17.6243
  0
LINE
  8
0
 10
56.9928
 20
17.6243
 11
56.8883
 21
17.6298
  0
LINE
  8
0
 10
56.8883
 20
17.6298
 11
43.1117
 21
17.6298
  0
LINE
  8
0
 10
43.1117
 20
17.6298
 11
43.0072
 21
17.6243
  0
LINE
  8
0
 10
43.0072
 20
17.6243
 11
42.9038
 21
17.608
  0
LINE
  8
0
 10
42.9038
 20
17.608
 11
42.8027
 21
17.5809
  0
LINE
  8
0
 10
42.8027
 20
17.5809
 11
42.705
 21
17.5434
  0
LINE
  8
0
 10
42.705
 20
17.5434
 11
42.6117
 21
17.4958
  0
LINE
  8
0
 10
42.6117
 20
17.4958
 11
42.5239
 21
17.4388
  0
LINE
  8
0
 10
42.5239
 20
17.4388
 11
42.4426
 21
17.373
  0
LINE
  8
0
 10
42.4426
 20
17.373
 11
41.0661
 21
15.9965
  0
LINE
  8
0
 10
41.0661
 20
15.9965
 11
41
 21
16
  0
LINE
  8
0
 10
41
 20
16
 11
9
 21
16
  0
LINE
  8
0
 10
9
 20
16
 11
8.93385
 21
15.9965
  0
LINE
  8
0
 10
8.93385
 20
15.9965
 11
7.55742
 21
17.373
  0
LINE
  8
0
 10
7.55742
 20
17.373
 11
7.47607
 21
17.4388
  0
LINE
  8
0
 10
7.47607
 20
17.4388
 11
7.38829
 21
17.4958
  0
LINE
  8
0
 10
7.38829
 20
17.4958
 11
7.29501
 21
17.5434
  0
LINE
  8
0
 10
7.29501
 20
17.5434
 11
7.1973
 21
17.5809
  0
LINE
  8
0
 10
7.1973
 20
17.5809
 11
7.09619
 21
17.608
  0
LINE
  8
0
 10
7.09619
 20
17.608
 11
6.99281
 21
17.6243
  0
LINE
  8
0
 10
6.99281
 20
17.6243
 11
6.88829
 21
17.6298
  0
LINE
  8
0
 10
6.88829
 20
17.6298
 11
-6.88829
 21
17.6298
  0
LINE
  8
0
 10
-6.88829
 20
17.6298
 11
-6.99281
 21
17.6243
  0
LINE
  8
0
 10
-6.99281
 20
17.6243
 11
-7.09619
 21
17.608
  0
LINE
  8
0
 10
-7.09619
 20
17.608
 11
-7.1973
 21
17.5809
  0
LINE
  8
0
 10
-7.1973
 20
17.5809
 11
-7.29501
 21
17.5434
  0
LINE
  8
0
 10
-7.29501
 20
17.5434
 11
-7.38828
 21
17.4958
  0
LINE
  8
0
 10
-7.38828
 20
17.4958
 11
-7.47607
 21
17.4388
  0
LINE
  8
0
 10
-7.47607
 20
17.4388
 11
-7.55742
 21
17.373
  0
LINE
  8
0
 10
-7.55742
 20
17.373
 11
-17.373
 21
7.55742
  0
LINE
  8
0
 10
-17.373
 20
7.55742
 11
-17.4388
 21
7.47607
  0
LINE
  8
0
 10
-17.4388
 20
7.47607
 11
-17.4958
 21
7.38828
  0
LINE
  8
0
 10
-17.4958
 20
7.38828
 11
-17.5434
 21
7.29501
  0
LINE
  8
0
 10
-17.5434
 20
7.29501
 11
-17.5809
 21
7.1973
  0
LINE
  8
0
 10
-17.5809
 20
7.1973
 11
-17.608
 21
7.09619
  0
LINE
  8
0
 10
-17.608
 20
7.09619
 11
-17.6243
 21
6.99281
  0
LINE
  8
0
 10
-17.6243
 20
6.99281
 11
-17.6298
 21
6.88829
  0
LINE
  8
0
 10
-17.6298
 20
6.88829
 11
-17.6298
 21
-6.88829
  0
LINE
  8
0
 10
-17.6298
 20
-6.88829
 11
-17.6243
 21
-6.99281
  0
LINE
  8
0
 10
-17.6243
 20
-6.99281
 11
-17.608
 21
-7.09619
  0
LINE
  8
0
 10
-17.608
 20
-7.09619
 11
-17.5809
 21
-7.1973
  0
LINE
  8
0
 10
-17.5809
 20
-7.1973
 11
-17.5434
 21
-7.29501
  0
LINE
  8
0
 10
-17.5434
 20
-7.29501
 11
-17.4958
 21
-7.38828
  0
LINE
  8
0
 10
-17.4958
 20
-7.38828
 11
-17.4388
 21
-7.47607
  0
LINE
  8
0
 10
-17.4388
 20
-7.47607
 11
-17.373
 21
-7.55742
  0
LINE
  8
0
 10
-17.373
 20
-7.55742
 11
-7.55742
 21
-17.373
  0
LINE
  8
0
 10
-7.55742
 20
-17.373
 11
-7.47607
 21
-17.4388
  0
LINE
  8
0
 10
-7.47607
 20
-17.4388
 11
-7.38829
 21
-17.4958
  0
LINE
  8
0
 10
-7.38829
 20
-17.4958
 11
-7.29501
 21
-17.5434
  0
LINE
  8
0
 10
-7.29501
 20
-17.5434
 11
-7.1973
 21
-17.5809
  0
LINE
  8
0
 10
-7.1973
 20
-17.5809
 11
-7.09619
 21
-17.608
  0
LINE
  8
0
 10
-7.09619
 20
-17.608
 11
-6.99281
 21
-17.6243
  0
LINE
  8
0
 10
-6.99281
 20
-17.6243
 11
-6.88829
 21
-17.6298
  0
LINE
  8
0
 10
-6.88829
 20
-17.6298
 11
6.88829
 21
-17.6298
  0
LINE
  8
0
 10
6.88829
 20
-17.6298
 11
6.99281
 21
-17.6243
  0
LINE
  8
0
 10
6.99281
 20
-17.6243
 11
7.09619
 21
-17.608
  0
LINE
  8
0
 10
7.09619
 20
-17.608
 11
7.1973
 21
-17.5809
  0
LINE
  8
0
 10
7.1973
 20
-17.5809
 11
7.29501
 21
-17.5434
  0
LINE
  8
0
 10
7.29501
 20
-17.5434
 11
7.38829
 21
-17.4958
  0
LINE
  8
0
 10
7.38829
 20
-17.4958
 11
7.47607
 21
-17.4388
  0
LINE
  8
0
 10
7.47607
 20
-17.4388
 11
7.55742
 21
-17.373
  0
LINE
  8
0
 10
7.55742
 20
-17.373
 11
8.93385
 21
-15.9965
  0
LINE
  8
0
 10
8.93385
 20
-15.9965
 11
9
 21
-16
  0
ENDSEC
  0
SECTION
  2
OBJECTS
  0
DICTIONARY
  0
ENDSEC
  0
EOF
