  0
SECTION
  2
BLOCKS
  0
ENDSEC
  0
SECTION
  2
ENTITIES
  0
LINE
  8
0
 10
29.763
 20
-16
 11
32.0599
 21
-18.2968
  0
LINE
  8
0
 10
32.0599
 20
-18.2968
 11
32.1412
 21
-18.3627
  0
LINE
  8
0
 10
32.1412
 20
-18.3627
 11
32.229
 21
-18.4197
  0
LINE
  8
0
 10
32.229
 20
-18.4197
 11
32.3223
 21
-18.4673
  0
LINE
  8
0
 10
32.3223
 20
-18.4673
 11
32.42
 21
-18.5048
  0
LINE
  8
0
 10
32.42
 20
-18.5048
 11
32.5211
 21
-18.5318
  0
LINE
  8
0
 10
32.5211
 20
-18.5318
 11
32.6245
 21
-18.5482
  0
LINE
  8
0
 10
32.6245
 20
-18.5482
 11
32.729
 21
-18.5537
  0
LINE
  8
0
 10
32.729
 20
-18.5537
 11
47.271
 21
-18.5537
  0
LINE
  8
0
 10
47.271
 20
-18.5537
 11
47.3755
 21
-18.5482
  0
LINE
  8
0
 10
47.3755
 20
-18.5482
 11
47.4789
 21
-18.5318
  0
LINE
  8
0
 10
47.4789
 20
-18.5318
 11
47.58
 21
-18.5048
  0
LINE
  8
0
 10
47.58
 20
-18.5048
 11
47.6777
 21
-18.4673
  0
LINE
  8
0
 10
47.6777
 20
-18.4673
 11
47.771
 21
-18.4197
  0
LINE
  8
0
 10
47.771
 20
-18.4197
 11
47.8588
 21
-18.3627
  0
LINE
  8
0
 10
47.8588
 20
-18.3627
 11
47.9401
 21
-18.2968
  0
LINE
  8
0
 10
47.9401
 20
-18.2968
 11
58.2968
 21
-7.94011
  0
LINE
  8
0
 10
58.2968
 20
-7.94011
 11
58.3627
 21
-7.85876
  0
LINE
  8
0
 10
58.3627
 20
-7.85876
 11
58.4197
 21
-7.77097
  0
LINE
  8
0
 10
58.4197
 20
-7.77097
 11
58.4673
 21
-7.6777
  0
LINE
  8
0
 10
58.4673
 20
-7.6777
 11
58.5048
 21
-7.57999
  0
LINE
  8
0
 10
58.5048
 20
-7.57999
 11
58.5318
 21
-7.47888
  0
LINE
  8
0
 10
58.5318
 20
-7.47888
 11
58.5482
 21
-7.3755
  0
LINE
  8
0
 10
58.5482
 20
-7.3755
 11
58.5537
 21
-7.27098
  0
LINE
  8
0
 10
58.5537
 20
-7.27098
 11
58.5537
 21
7.27098
  0
LINE
  8
0
 10
58.5537
 20
7.27098
 11
58.5482
 21
7.3755
  0
LINE
  8
0
 10
58.5482
 20
7.3755
 11
58.5318
 21
7.47888
  0
LINE
  8
0
 10
58.5318
 20
7.47888
 11
58.5048
 21
7.57999
  0
LINE
  8
0
 10
58.5048
 20
7.57999
 11
58.4673
 21
7.6777
  0
LINE
  8
0
 10
58.4673
 20
7.6777
 11
58.4197
 21
7.77097
  0
LINE
  8
0
 10
58.4197
 20
7.77097
 11
58.3627
 21
7.85876
  0
LINE
  8
0
 10
58.3627
 20
7.85876
 11
58.2968
 21
7.94011
  0
LINE
  8
0
 10
58.2968
 20
7.94011
 11
47.9401
 21
18.2968
  0
LINE
  8
0
 10
47.9401
 20
18.2968
 11
47.8588
 21
18.3627
  0
LINE
  8
0
 10
47.8588
 20
18.3627
 11
47.771
 21
18.4197
  0
LINE
  8
0
 10
47.771
 20
18.4197
 11
47.6777
 21
18.4673
  0
LINE
  8
0
 10
47.6777
 20
18.4673
 11
47.58
 21
18.5048
  0
LINE
  8
0
 10
47.58
 20
18.5048
 11
47.4789
 21
18.5318
  0
LINE
  8
0
 10
47.4789
 20
18.5318
 11
47.3755
 21
18.5482
  0
LINE
  8
0
 10
47.3755
 20
18.5482
 11
47.271
 21
18.5537
  0
LINE
  8
0
 10
47.271
 20
18.5537
 11
32.729
 21
18.5537
  0
LINE
  8
0
 10
32.729
 20
18.5537
 11
32.6245
 21
18.5482
  0
LINE
  8
0
 10
32.6245
 20
18.5482
 11
32.5211
 21
18.5318
  0
LINE
  8
0
 10
32.5211
 20
18.5318
 11
32.42
 21
18.5048
  0
LINE
  8
0
 10
32.42
 20
18.5048
 11
32.3223
 21
18.4673
  0
LINE
  8
0
 10
32.3223
 20
18.4673
 11
32.229
 21
18.4197
  0
LINE
  8
0
 10
32.229
 20
18.4197
 11
32.1412
 21
18.3627
  0
LINE
  8
0
 10
32.1412
 20
18.3627
 11
32.0599
 21
18.2968
  0
LINE
  8
0
 10
32.0599
 20
18.2968
 11
29.763
 21
16
  0
LINE
  8
0
 10
29.763
 20
16
 11
10.237
 21
16
  0
LINE
  8
0
 10
10.237
 20
16
 11
7.94011
 21
18.2968
  0
LINE
  8
0
 10
7.94011
 20
18.2968
 11
7.85876
 21
18.3627
  0
LINE
  8
0
 10
7.85876
 20
18.3627
 11
7.77098
 21
18.4197
  0
LINE
  8
0
 10
7.77098
 20
18.4197
 11
7.6777
 21
18.4673
  0
LINE
  8
0
 10
7.6777
 20
18.4673
 11
7.57999
 21
18.5048
  0
LINE
  8
0
 10
7.57999
 20
18.5048
 11
7.47888
 21
18.5318
  0
LINE
  8
0
 10
7.47888
 20
18.5318
 11
7.3755
 21
18.5482
  0
LINE
  8
0
 10
7.3755
 20
18.5482
 11
7.27098
 21
18.5537
  0
LINE
  8
0
 10
7.27098
 20
18.5537
 11
-7.27098
 21
18.5537
  0
LINE
  8
0
 10
-7.27098
 20
18.5537
 11
-7.3755
 21
18.5482
  0
LINE
  8
0
 10
-7.3755
 20
18.5482
 11
-7.47888
 21
18.5318
  0
LINE
  8
0
 10
-7.47888
 20
18.5318
 11
-7.57999
 21
18.5048
  0
LINE
  8
0
 10
-7.57999
 20
18.5048
 11
-7.6777
 21
18.4673
  0
LINE
  8
0
 10
-7.6777
 20
18.4673
 11
-7.77097
 21
18.4197
  0
LINE
  8
0
 10
-7.77097
 20
18.4197
 11
-7.85876
 21
18.3627
  0
LINE
  8
0
 10
-7.85876
 20
18.3627
 11
-7.94011
 21
18.2968
  0
LINE
  8
0
 10
-7.94011
 20
18.2968
 11
-18.2968
 21
7.94011
  0
LINE
  8
0
 10
-18.2968
 20
7.94011
 11
-18.3627
 21
7.85876
  0
LINE
  8
0
 10
-18.3627
 20
7.85876
 11
-18.4197
 21
7.77097
  0
LINE
  8
0
 10
-18.4197
 20
7.77097
 11
-18.4673
 21
7.6777
  0
LINE
  8
0
 10
-18.4673
 20
7.6777
 11
-18.5048
 21
7.57999
  0
LINE
  8
0
 10
-18.5048
 20
7.57999
 11
-18.5318
 21
7.47888
  0
LINE
  8
0
 10
-18.5318
 20
7.47888
 11
-18.5482
 21
7.3755
  0
LINE
  8
0
 10
-18.5482
 20
7.3755
 11
-18.5537
 21
7.27098
  0
LINE
  8
0
 10
-18.5537
 20
7.27098
 11
-18.5537
 21
-7.27098
  0
LINE
  8
0
 10
-18.5537
 20
-7.27098
 11
-18.5482
 21
-7.3755
  0
LINE
  8
0
 10
-18.5482
 20
-7.3755
 11
-18.5318
 21
-7.47888
  0
LINE
  8
0
 10
-18.5318
 20
-7.47888
 11
-18.5048
 21
-7.57999
  0
LINE
  8
0
 10
-18.5048
 20
-7.57999
 11
-18.4673
 21
-7.6777
  0
LINE
  8
0
 10
-18.4673
 20
-7.6777
 11
-18.4197
 21
-7.77097
  0
LINE
  8
0
 10
-18.4197
 20
-7.77097
 11
-18.3627
 21
-7.85876
  0
LINE
  8
0
 10
-18.3627
 20
-7.85876
 11
-18.2968
 21
-7.94011
  0
LINE
  8
0
 10
-18.2968
 20
-7.94011
 11
-7.94011
 21
-18.2968
  0
LINE
  8
0
 10
-7.94011
 20
-18.2968
 11
-7.85876
 21
-18.3627
  0
LINE
  8
0
 10
-7.85876
 20
-18.3627
 11
-7.77098
 21
-18.4197
  0
LINE
  8
0
 10
-7.77098
 20
-18.4197
 11
-7.6777
 21
-18.4673
  0
LINE
  8
0
 10
-7.6777
 20
-18.4673
 11
-7.57999
 21
-18.5048
  0
LINE
  8
0
 10
-7.57999
 20
-18.5048
 11
-7.47888
 21
-18.5318
  0
LINE
  8
0
 10
-7.47888
 20
-18.5318
 11
-7.3755
 21
-18.5482
  0
LINE
  8
0
 10
-7.3755
 20
-18.5482
 11
-7.27098
 21
-18.5537
  0
LINE
  8
0
 10
-7.27098
 20
-18.5537
 11
7.27098
 21
-18.5537
  0
LINE
  8
0
 10
7.27098
 20
-18.5537
 11
7.3755
 21
-18.5482
  0
LINE
  8
0
 10
7.3755
 20
-18.5482
 11
7.47888
 21
-18.5318
  0
LINE
  8
0
 10
7.47888
 20
-18.5318
 11
7.57999
 21
-18.5048
  0
LINE
  8
0
 10
7.57999
 20
-18.5048
 11
7.6777
 21
-18.4673
  0
LINE
  8
0
 10
7.6777
 20
-18.4673
 11
7.77098
 21
-18.4197
  0
LINE
  8
0
 10
7.77098
 20
-18.4197
 11
7.85876
 21
-18.3627
  0
LINE
  8
0
 10
7.85876
 20
-18.3627
 11
7.94011
 21
-18.2968
  0
LINE
  8
0
 10
7.94011
 20
-18.2968
 11
10.237
 21
-16
  0
LINE
  8
0
 10
10.237
 20
-16
 11
29.763
 21
-16
  0
ENDSEC
  0
SECTION
  2
OBJECTS
  0
DICTIONARY
  0
ENDSEC
  0
EOF
