  0
SECTION
  2
BLOCKS
  0
ENDSEC
  0
SECTION
  2
ENTITIES
  0
LINE
  8
0
 10
20.7725
 20
-2.37764
 11
21.25
 21
-2.16505
  0
LINE
  8
0
 10
21.25
 20
-2.16505
 11
21.6728
 21
-1.85785
  0
LINE
  8
0
 10
21.6728
 20
-1.85785
 11
22.0225
 21
-1.46945
  0
LINE
  8
0
 10
22.0225
 20
-1.46945
 11
22.2839
 21
-1.01683
  0
LINE
  8
0
 10
22.2839
 20
-1.01683
 11
22.4454
 21
-0.519775
  0
LINE
  8
0
 10
22.4454
 20
-0.519775
 11
22.5
 21
0
  0
LINE
  8
0
 10
22.5
 20
0
 11
22.5
 21
30
  0
LINE
  8
0
 10
22.5
 20
30
 11
22.4454
 21
30.5198
  0
LINE
  8
0
 10
22.4454
 20
30.5198
 11
22.2839
 21
31.0168
  0
LINE
  8
0
 10
22.2839
 20
31.0168
 11
22.0225
 21
31.4695
  0
LINE
  8
0
 10
22.0225
 20
31.4695
 11
21.6728
 21
31.8578
  0
LINE
  8
0
 10
21.6728
 20
31.8578
 11
21.25
 21
32.1651
  0
LINE
  8
0
 10
21.25
 20
32.1651
 11
20.7725
 21
32.3776
  0
LINE
  8
0
 10
20.7725
 20
32.3776
 11
20.2613
 21
32.4863
  0
LINE
  8
0
 10
20.2613
 20
32.4863
 11
16.3534
 21
32.4863
  0
LINE
  8
0
 10
16.3534
 20
32.4863
 11
16.1542
 21
31.873
  0
LINE
  8
0
 10
16.1542
 20
31.873
 11
15.7361
 21
31.1488
  0
LINE
  8
0
 10
15.7361
 20
31.1488
 11
15.1765
 21
30.5274
  0
LINE
  8
0
 10
15.1765
 20
30.5274
 11
14.5
 21
30.0359
  0
LINE
  8
0
 10
14.5
 20
30.0359
 11
13.7361
 21
29.6958
  0
LINE
  8
0
 10
13.7361
 20
29.6958
 11
12.9181
 21
29.5219
  0
LINE
  8
0
 10
12.9181
 20
29.5219
 11
12.0819
 21
29.5219
  0
LINE
  8
0
 10
12.0819
 20
29.5219
 11
11.2639
 21
29.6958
  0
LINE
  8
0
 10
11.2639
 20
29.6958
 11
10.5
 21
30.0359
  0
LINE
  8
0
 10
10.5
 20
30.0359
 11
9.82347
 21
30.5274
  0
LINE
  8
0
 10
9.82347
 20
30.5274
 11
9.26393
 21
31.1488
  0
LINE
  8
0
 10
9.26393
 20
31.1488
 11
8.84581
 21
31.873
  0
LINE
  8
0
 10
8.84581
 20
31.873
 11
8.64656
 21
32.4863
  0
LINE
  8
0
 10
8.64656
 20
32.4863
 11
-0.261307
 21
32.4863
  0
LINE
  8
0
 10
-0.261307
 20
32.4863
 11
-0.772537
 21
32.3776
  0
LINE
  8
0
 10
-0.772537
 20
32.3776
 11
-1.24998
 21
32.1651
  0
LINE
  8
0
 10
-1.24998
 20
32.1651
 11
-1.67282
 21
31.8578
  0
LINE
  8
0
 10
-1.67282
 20
31.8578
 11
-2.02254
 21
31.4695
  0
LINE
  8
0
 10
-2.02254
 20
31.4695
 11
-2.28386
 21
31.0168
  0
LINE
  8
0
 10
-2.28386
 20
31.0168
 11
-2.44536
 21
30.5198
  0
LINE
  8
0
 10
-2.44536
 20
30.5198
 11
-2.5
 21
30
  0
LINE
  8
0
 10
-2.5
 20
30
 11
-2.5
 21
0
  0
LINE
  8
0
 10
-2.5
 20
0
 11
-2.44536
 21
-0.519775
  0
LINE
  8
0
 10
-2.44536
 20
-0.519775
 11
-2.28386
 21
-1.01683
  0
LINE
  8
0
 10
-2.28386
 20
-1.01683
 11
-2.02254
 21
-1.46945
  0
LINE
  8
0
 10
-2.02254
 20
-1.46945
 11
-1.67282
 21
-1.85785
  0
LINE
  8
0
 10
-1.67282
 20
-1.85785
 11
-1.25
 21
-2.16505
  0
LINE
  8
0
 10
-1.25
 20
-2.16505
 11
-0.772537
 21
-2.37764
  0
LINE
  8
0
 10
-0.772537
 20
-2.37764
 11
-0.261307
 21
-2.4863
  0
LINE
  8
0
 10
-0.261307
 20
-2.4863
 11
8.64656
 21
-2.4863
  0
LINE
  8
0
 10
8.64656
 20
-2.4863
 11
8.84581
 21
-1.87305
  0
LINE
  8
0
 10
8.84581
 20
-1.87305
 11
9.26393
 21
-1.14885
  0
LINE
  8
0
 10
9.26393
 20
-1.14885
 11
9.82347
 21
-0.52742
  0
LINE
  8
0
 10
9.82347
 20
-0.52742
 11
10.5
 21
-0.0358887
  0
LINE
  8
0
 10
10.5
 20
-0.0358887
 11
11.2639
 21
0.304214
  0
LINE
  8
0
 10
11.2639
 20
0.304214
 11
12.0819
 21
0.478073
  0
LINE
  8
0
 10
12.0819
 20
0.478073
 11
12.9181
 21
0.478073
  0
LINE
  8
0
 10
12.9181
 20
0.478073
 11
13.7361
 21
0.304214
  0
LINE
  8
0
 10
13.7361
 20
0.304214
 11
14.5
 21
-0.0358887
  0
LINE
  8
0
 10
14.5
 20
-0.0358887
 11
15.1765
 21
-0.52742
  0
LINE
  8
0
 10
15.1765
 20
-0.52742
 11
15.7361
 21
-1.14885
  0
LINE
  8
0
 10
15.7361
 20
-1.14885
 11
16.1542
 21
-1.87305
  0
LINE
  8
0
 10
16.1542
 20
-1.87305
 11
16.3534
 21
-2.4863
  0
LINE
  8
0
 10
16.3534
 20
-2.4863
 11
20.2613
 21
-2.4863
  0
LINE
  8
0
 10
20.2613
 20
-2.4863
 11
20.7725
 21
-2.37764
  0
ENDSEC
  0
SECTION
  2
OBJECTS
  0
DICTIONARY
  0
ENDSEC
  0
EOF
